<?xml version="1.0" encoding="utf-8"?>
<!-- Generator: Adobe Illustrator 25.0.0, SVG Export Plug-In . SVG Version: 6.00 Build 0)  -->
<svg version="1.2" baseProfile="tiny" id="图层_1"
	 xmlns="http://www.w3.org/2000/svg" xmlns:xlink="http://www.w3.org/1999/xlink" x="0px" y="0px" viewBox="0 0 1920 1080"
	 overflow="visible" xml:space="preserve">
<g>
	<path fill="#00D4A7" d="M224,434.5c-5.24,0-9.5-4.26-9.5-9.5v-9c0-5.24,4.26-9.5,9.5-9.5h56c5.24,0,9.5,4.26,9.5,9.5v9
		c0,5.24-4.26,9.5-9.5,9.5H224z"/>
	<path d="M280,407c4.96,0,9,4.04,9,9v9c0,4.96-4.04,9-9,9h-56c-4.96,0-9-4.04-9-9v-9c0-4.96,4.04-9,9-9H280 M280,406h-56
		c-5.5,0-10,4.5-10,10v9c0,5.5,4.5,10,10,10h56c5.5,0,10-4.5,10-10v-9C290,410.5,285.5,406,280,406L280,406z"/>
</g>
<path d="M1717,319c21.5,0,39,17.5,39,39v294c0,21.5-17.5,39-39,39H193c-21.5,0-39-17.5-39-39V358c0-21.5,17.5-39,39-39H1717
	 M1717,318H193c-22,0-40,18-40,40v294c0,22,18,40,40,40h1524c22,0,40-18,40-40V358C1757,336,1739,318,1717,318L1717,318z"/>
<g>
	<path fill="#00D4A7" d="M224,463.5c-5.24,0-9.5-4.26-9.5-9.5v-9c0-5.24,4.26-9.5,9.5-9.5h56c5.24,0,9.5,4.26,9.5,9.5v9
		c0,5.24-4.26,9.5-9.5,9.5H224z"/>
	<path d="M280,436c4.96,0,9,4.04,9,9v9c0,4.96-4.04,9-9,9h-56c-4.96,0-9-4.04-9-9v-9c0-4.96,4.04-9,9-9H280 M280,435h-56
		c-5.5,0-10,4.5-10,10v9c0,5.5,4.5,10,10,10h56c5.5,0,10-4.5,10-10v-9C290,439.5,285.5,435,280,435L280,435z"/>
</g>
<g>
	<path fill="#00D4A7" d="M224,492.5c-5.24,0-9.5-4.26-9.5-9.5v-9c0-5.24,4.26-9.5,9.5-9.5h56c5.24,0,9.5,4.26,9.5,9.5v9
		c0,5.24-4.26,9.5-9.5,9.5H224z"/>
	<path d="M280,465c4.96,0,9,4.04,9,9v9c0,4.96-4.04,9-9,9h-56c-4.96,0-9-4.04-9-9v-9c0-4.96,4.04-9,9-9H280 M280,464h-56
		c-5.5,0-10,4.5-10,10v9c0,5.5,4.5,10,10,10h56c5.5,0,10-4.5,10-10v-9C290,468.5,285.5,464,280,464L280,464z"/>
</g>
<g>
	<path fill="#00D4A7" d="M224,521.5c-5.24,0-9.5-4.26-9.5-9.5v-9c0-5.24,4.26-9.5,9.5-9.5h56c5.24,0,9.5,4.26,9.5,9.5v9
		c0,5.24-4.26,9.5-9.5,9.5H224z"/>
	<path d="M280,494c4.96,0,9,4.04,9,9v9c0,4.96-4.04,9-9,9h-56c-4.96,0-9-4.04-9-9v-9c0-4.96,4.04-9,9-9H280 M280,493h-56
		c-5.5,0-10,4.5-10,10v9c0,5.5,4.5,10,10,10h56c5.5,0,10-4.5,10-10v-9C290,497.5,285.5,493,280,493L280,493z"/>
</g>
<g>
	<path fill="#00D4A7" d="M224,550.5c-5.24,0-9.5-4.26-9.5-9.5v-9c0-5.24,4.26-9.5,9.5-9.5h56c5.24,0,9.5,4.26,9.5,9.5v9
		c0,5.24-4.26,9.5-9.5,9.5H224z"/>
	<path d="M280,523c4.96,0,9,4.04,9,9v9c0,4.96-4.04,9-9,9h-56c-4.96,0-9-4.04-9-9v-9c0-4.96,4.04-9,9-9H280 M280,522h-56
		c-5.5,0-10,4.5-10,10v9c0,5.5,4.5,10,10,10h56c5.5,0,10-4.5,10-10v-9C290,526.5,285.5,522,280,522L280,522z"/>
</g>
<g>
	<path fill="#00D4A7" d="M224,579.5c-5.24,0-9.5-4.26-9.5-9.5v-9c0-5.24,4.26-9.5,9.5-9.5h56c5.24,0,9.5,4.26,9.5,9.5v9
		c0,5.24-4.26,9.5-9.5,9.5H224z"/>
	<path d="M280,552c4.96,0,9,4.04,9,9v9c0,4.96-4.04,9-9,9h-56c-4.96,0-9-4.04-9-9v-9c0-4.96,4.04-9,9-9H280 M280,551h-56
		c-5.5,0-10,4.5-10,10v9c0,5.5,4.5,10,10,10h56c5.5,0,10-4.5,10-10v-9C290,555.5,285.5,551,280,551L280,551z"/>
</g>
<g>
	<path fill="#00D4A7" d="M224,608.5c-5.24,0-9.5-4.26-9.5-9.5v-9c0-5.24,4.26-9.5,9.5-9.5h56c5.24,0,9.5,4.26,9.5,9.5v9
		c0,5.24-4.26,9.5-9.5,9.5H224z"/>
	<path d="M280,581c4.96,0,9,4.04,9,9v9c0,4.96-4.04,9-9,9h-56c-4.96,0-9-4.04-9-9v-9c0-4.96,4.04-9,9-9H280 M280,580h-56
		c-5.5,0-10,4.5-10,10v9c0,5.5,4.5,10,10,10h56c5.5,0,10-4.5,10-10v-9C290,584.5,285.5,580,280,580L280,580z"/>
</g>
<g>
	<path fill="#00D4A7" d="M224,637.5c-5.24,0-9.5-4.26-9.5-9.5v-9c0-5.24,4.26-9.5,9.5-9.5h56c5.24,0,9.5,4.26,9.5,9.5v9
		c0,5.24-4.26,9.5-9.5,9.5H224z"/>
	<path d="M280,610c4.96,0,9,4.04,9,9v9c0,4.96-4.04,9-9,9h-56c-4.96,0-9-4.04-9-9v-9c0-4.96,4.04-9,9-9H280 M280,609h-56
		c-5.5,0-10,4.5-10,10v9c0,5.5,4.5,10,10,10h56c5.5,0,10-4.5,10-10v-9C290,613.5,285.5,609,280,609L280,609z"/>
</g>
<rect x="1732.33" y="502.33" fill="none" width="22.67" height="0"/>
<text transform="matrix(1 0 0 1 367.6421 265.5151)" font-family="'Georgia'" font-size="36px">Seq2Seq Attention - General score function</text>
<text transform="matrix(1 0 0 1 313.7173 530.2295)" font-family="'AdobeSongStd-Light-GBpc-EUC-H'" font-size="36px">×</text>
<path fill="#5B5B5B" d="M502,546c0,11-9,20-20,20H376c-11,0-20-9-20-20v-47c0-11,9-20,20-20h106c11,0,20,9,20,20V546z"/>
<text transform="matrix(1 0 0 1 405.4985 536.5176)" fill="#FFFFFF" font-family="'AdobeSongStd-Light-GBpc-EUC-H'" font-size="36px">Wa</text>
<text transform="matrix(1 0 0 1 519.7117 530.2095)" font-family="'AdobeSongStd-Light-GBpc-EUC-H'" font-size="36px">×</text>
<text transform="matrix(1 0 0 1 1450.7117 516.2095)" font-family="'AdobeSongStd-Light-GBpc-EUC-H'" font-size="36px">×</text>
<path fill="#31A6F4" d="M610,600c0,5.5-4.5,10-10,10h-9c-5.5,0-10-4.5-10-10V422c0-5.5,4.5-10,10-10h9c5.5,0,10,4.5,10,10V600z"/>
<path fill="#31A6F4" d="M932,985c0,5.5-4.5,10-10,10h-9c-5.5,0-10-4.5-10-10V871c0-5.5,4.5-10,10-10h9c5.5,0,10,4.5,10,10V985z"/>
<path fill="#C95B88" d="M1679,569c0,5.5-4.5,10-10,10h-9c-5.5,0-10-4.5-10-10V451c0-5.5,4.5-10,10-10h9c5.5,0,10,4.5,10,10V569z"/>
<g>
	<line fill="#FFFF00" x1="753" y1="507.5" x2="819" y2="507.5"/>
	<g>
		<line fill="none" stroke="#FCEE21" stroke-width="3" stroke-miterlimit="10" x1="753" y1="507.5" x2="792.42" y2="507.5"/>
		<g>
			<polygon fill="#FCEE21" points="786.48,516.22 819,507.5 786.48,498.78 			"/>
		</g>
	</g>
</g>
<g>
	<line fill="#FFFF00" x1="1173" y1="504.5" x2="1239" y2="504.5"/>
	<g>
		<line fill="none" stroke="#FCEE21" stroke-width="3" stroke-miterlimit="10" x1="1173" y1="504.5" x2="1212.42" y2="504.5"/>
		<g>
			<polygon fill="#FCEE21" points="1206.48,513.22 1239,504.5 1206.48,495.78 			"/>
		</g>
	</g>
</g>
<text transform="matrix(1 0 0 1 634.064 527.1274)" font-family="'AdobeSongStd-Light-GBpc-EUC-H'" font-size="36px">=</text>
<text transform="matrix(1 0 0 1 1077.064 513.1274)" font-family="'AdobeSongStd-Light-GBpc-EUC-H'" font-size="36px">=</text>
<text transform="matrix(1 0 0 1 1598.064 513.1274)" font-family="'AdobeSongStd-Light-GBpc-EUC-H'" font-size="36px">=</text>
<g>
	<path fill="#96F98C" d="M725.5,408.5c0,2.75-2.25,5-5,5h-21c-2.75,0-5-2.25-5-5v-13c0-2.75,2.25-5,5-5h21c2.75,0,5,2.25,5,5V408.5z
		"/>
	<path fill="none" stroke="#000000" stroke-miterlimit="10" d="M725.5,408.5c0,2.75-2.25,5-5,5h-21c-2.75,0-5-2.25-5-5v-13
		c0-2.75,2.25-5,5-5h21c2.75,0,5,2.25,5,5V408.5z"/>
</g>
<g>
	<path fill="#96F98C" d="M725.5,428.5c0,2.75-2.25,5-5,5h-21c-2.75,0-5-2.25-5-5v-13c0-2.75,2.25-5,5-5h21c2.75,0,5,2.25,5,5V428.5z
		"/>
	<path fill="none" stroke="#000000" stroke-miterlimit="10" d="M725.5,428.5c0,2.75-2.25,5-5,5h-21c-2.75,0-5-2.25-5-5v-13
		c0-2.75,2.25-5,5-5h21c2.75,0,5,2.25,5,5V428.5z"/>
</g>
<g>
	<path fill="#96F98C" d="M725.5,449.5c0,2.75-2.25,5-5,5h-21c-2.75,0-5-2.25-5-5v-13c0-2.75,2.25-5,5-5h21c2.75,0,5,2.25,5,5V449.5z
		"/>
	<path fill="none" stroke="#000000" stroke-miterlimit="10" d="M725.5,449.5c0,2.75-2.25,5-5,5h-21c-2.75,0-5-2.25-5-5v-13
		c0-2.75,2.25-5,5-5h21c2.75,0,5,2.25,5,5V449.5z"/>
</g>
<g>
	<path fill="#96F98C" d="M725.5,470.5c0,2.75-2.25,5-5,5h-21c-2.75,0-5-2.25-5-5v-13c0-2.75,2.25-5,5-5h21c2.75,0,5,2.25,5,5V470.5z
		"/>
	<path fill="none" stroke="#000000" stroke-miterlimit="10" d="M725.5,470.5c0,2.75-2.25,5-5,5h-21c-2.75,0-5-2.25-5-5v-13
		c0-2.75,2.25-5,5-5h21c2.75,0,5,2.25,5,5V470.5z"/>
</g>
<g>
	<path fill="#96F98C" d="M725.5,493.5c0,2.75-2.25,5-5,5h-21c-2.75,0-5-2.25-5-5v-13c0-2.75,2.25-5,5-5h21c2.75,0,5,2.25,5,5V493.5z
		"/>
	<path fill="none" stroke="#000000" stroke-miterlimit="10" d="M725.5,493.5c0,2.75-2.25,5-5,5h-21c-2.75,0-5-2.25-5-5v-13
		c0-2.75,2.25-5,5-5h21c2.75,0,5,2.25,5,5V493.5z"/>
</g>
<g>
	<path fill="#96F98C" d="M725.5,514.5c0,2.75-2.25,5-5,5h-21c-2.75,0-5-2.25-5-5v-13c0-2.75,2.25-5,5-5h21c2.75,0,5,2.25,5,5V514.5z
		"/>
	<path fill="none" stroke="#000000" stroke-miterlimit="10" d="M725.5,514.5c0,2.75-2.25,5-5,5h-21c-2.75,0-5-2.25-5-5v-13
		c0-2.75,2.25-5,5-5h21c2.75,0,5,2.25,5,5V514.5z"/>
</g>
<g>
	<path fill="#96F98C" d="M725.5,534.5c0,2.75-2.25,5-5,5h-21c-2.75,0-5-2.25-5-5v-13c0-2.75,2.25-5,5-5h21c2.75,0,5,2.25,5,5V534.5z
		"/>
	<path fill="none" stroke="#000000" stroke-miterlimit="10" d="M725.5,534.5c0,2.75-2.25,5-5,5h-21c-2.75,0-5-2.25-5-5v-13
		c0-2.75,2.25-5,5-5h21c2.75,0,5,2.25,5,5V534.5z"/>
</g>
<g>
	<path fill="#96F98C" d="M725.5,557.5c0,2.75-2.25,5-5,5h-21c-2.75,0-5-2.25-5-5v-13c0-2.75,2.25-5,5-5h21c2.75,0,5,2.25,5,5V557.5z
		"/>
	<path fill="none" stroke="#000000" stroke-miterlimit="10" d="M725.5,557.5c0,2.75-2.25,5-5,5h-21c-2.75,0-5-2.25-5-5v-13
		c0-2.75,2.25-5,5-5h21c2.75,0,5,2.25,5,5V557.5z"/>
</g>
<g>
	<path fill="#96F98C" d="M725.5,578.5c0,2.75-2.25,5-5,5h-21c-2.75,0-5-2.25-5-5v-13c0-2.75,2.25-5,5-5h21c2.75,0,5,2.25,5,5V578.5z
		"/>
	<path fill="none" stroke="#000000" stroke-miterlimit="10" d="M725.5,578.5c0,2.75-2.25,5-5,5h-21c-2.75,0-5-2.25-5-5v-13
		c0-2.75,2.25-5,5-5h21c2.75,0,5,2.25,5,5V578.5z"/>
</g>
<g>
	<path fill="#96F98C" d="M725.5,599.5c0,2.75-2.25,5-5,5h-21c-2.75,0-5-2.25-5-5v-13c0-2.75,2.25-5,5-5h21c2.75,0,5,2.25,5,5V599.5z
		"/>
	<path fill="none" stroke="#000000" stroke-miterlimit="10" d="M725.5,599.5c0,2.75-2.25,5-5,5h-21c-2.75,0-5-2.25-5-5v-13
		c0-2.75,2.25-5,5-5h21c2.75,0,5,2.25,5,5V599.5z"/>
</g>
<g>
	<path fill="#96F98C" d="M725.5,622.5c0,2.75-2.25,5-5,5h-21c-2.75,0-5-2.25-5-5v-13c0-2.75,2.25-5,5-5h21c2.75,0,5,2.25,5,5V622.5z
		"/>
	<path fill="none" stroke="#000000" stroke-miterlimit="10" d="M725.5,622.5c0,2.75-2.25,5-5,5h-21c-2.75,0-5-2.25-5-5v-13
		c0-2.75,2.25-5,5-5h21c2.75,0,5,2.25,5,5V622.5z"/>
</g>
<g>
	<path fill="#96F98C" d="M725.5,643.5c0,2.75-2.25,5-5,5h-21c-2.75,0-5-2.25-5-5v-13c0-2.75,2.25-5,5-5h21c2.75,0,5,2.25,5,5V643.5z
		"/>
	<path fill="none" stroke="#000000" stroke-miterlimit="10" d="M725.5,643.5c0,2.75-2.25,5-5,5h-21c-2.75,0-5-2.25-5-5v-13
		c0-2.75,2.25-5,5-5h21c2.75,0,5,2.25,5,5V643.5z"/>
</g>
<g>
	<path fill="#AD64F4" d="M1155.5,411.5c0,2.75-2.25,5-5,5h-21c-2.75,0-5-2.25-5-5v-13c0-2.75,2.25-5,5-5h21c2.75,0,5,2.25,5,5V411.5
		z"/>
	<path fill="none" stroke="#000000" stroke-miterlimit="10" d="M1155.5,411.5c0,2.75-2.25,5-5,5h-21c-2.75,0-5-2.25-5-5v-13
		c0-2.75,2.25-5,5-5h21c2.75,0,5,2.25,5,5V411.5z"/>
</g>
<g>
	<path fill="#AD64F4" d="M1155.5,431.5c0,2.75-2.25,5-5,5h-21c-2.75,0-5-2.25-5-5v-13c0-2.75,2.25-5,5-5h21c2.75,0,5,2.25,5,5V431.5
		z"/>
	<path fill="none" stroke="#000000" stroke-miterlimit="10" d="M1155.5,431.5c0,2.75-2.25,5-5,5h-21c-2.75,0-5-2.25-5-5v-13
		c0-2.75,2.25-5,5-5h21c2.75,0,5,2.25,5,5V431.5z"/>
</g>
<g>
	<path fill="#AD64F4" d="M1155.5,452.5c0,2.75-2.25,5-5,5h-21c-2.75,0-5-2.25-5-5v-13c0-2.75,2.25-5,5-5h21c2.75,0,5,2.25,5,5V452.5
		z"/>
	<path fill="none" stroke="#000000" stroke-miterlimit="10" d="M1155.5,452.5c0,2.75-2.25,5-5,5h-21c-2.75,0-5-2.25-5-5v-13
		c0-2.75,2.25-5,5-5h21c2.75,0,5,2.25,5,5V452.5z"/>
</g>
<g>
	<path fill="#AD64F4" d="M1155.5,473.5c0,2.75-2.25,5-5,5h-21c-2.75,0-5-2.25-5-5v-13c0-2.75,2.25-5,5-5h21c2.75,0,5,2.25,5,5V473.5
		z"/>
	<path fill="none" stroke="#000000" stroke-miterlimit="10" d="M1155.5,473.5c0,2.75-2.25,5-5,5h-21c-2.75,0-5-2.25-5-5v-13
		c0-2.75,2.25-5,5-5h21c2.75,0,5,2.25,5,5V473.5z"/>
</g>
<g>
	<path fill="#AD64F4" d="M1155.5,496.5c0,2.75-2.25,5-5,5h-21c-2.75,0-5-2.25-5-5v-13c0-2.75,2.25-5,5-5h21c2.75,0,5,2.25,5,5V496.5
		z"/>
	<path fill="none" stroke="#000000" stroke-miterlimit="10" d="M1155.5,496.5c0,2.75-2.25,5-5,5h-21c-2.75,0-5-2.25-5-5v-13
		c0-2.75,2.25-5,5-5h21c2.75,0,5,2.25,5,5V496.5z"/>
</g>
<g>
	<path fill="#AD64F4" d="M1155.5,517.5c0,2.75-2.25,5-5,5h-21c-2.75,0-5-2.25-5-5v-13c0-2.75,2.25-5,5-5h21c2.75,0,5,2.25,5,5V517.5
		z"/>
	<path fill="none" stroke="#000000" stroke-miterlimit="10" d="M1155.5,517.5c0,2.75-2.25,5-5,5h-21c-2.75,0-5-2.25-5-5v-13
		c0-2.75,2.25-5,5-5h21c2.75,0,5,2.25,5,5V517.5z"/>
</g>
<g>
	<path fill="#AD64F4" d="M1155.5,537.5c0,2.75-2.25,5-5,5h-21c-2.75,0-5-2.25-5-5v-13c0-2.75,2.25-5,5-5h21c2.75,0,5,2.25,5,5V537.5
		z"/>
	<path fill="none" stroke="#000000" stroke-miterlimit="10" d="M1155.5,537.5c0,2.75-2.25,5-5,5h-21c-2.75,0-5-2.25-5-5v-13
		c0-2.75,2.25-5,5-5h21c2.75,0,5,2.25,5,5V537.5z"/>
</g>
<g>
	<path fill="#AD64F4" d="M1155.5,560.5c0,2.75-2.25,5-5,5h-21c-2.75,0-5-2.25-5-5v-13c0-2.75,2.25-5,5-5h21c2.75,0,5,2.25,5,5V560.5
		z"/>
	<path fill="none" stroke="#000000" stroke-miterlimit="10" d="M1155.5,560.5c0,2.75-2.25,5-5,5h-21c-2.75,0-5-2.25-5-5v-13
		c0-2.75,2.25-5,5-5h21c2.75,0,5,2.25,5,5V560.5z"/>
</g>
<g>
	<path fill="#AD64F4" d="M1155.5,581.5c0,2.75-2.25,5-5,5h-21c-2.75,0-5-2.25-5-5v-13c0-2.75,2.25-5,5-5h21c2.75,0,5,2.25,5,5V581.5
		z"/>
	<path fill="none" stroke="#000000" stroke-miterlimit="10" d="M1155.5,581.5c0,2.75-2.25,5-5,5h-21c-2.75,0-5-2.25-5-5v-13
		c0-2.75,2.25-5,5-5h21c2.75,0,5,2.25,5,5V581.5z"/>
</g>
<g>
	<path fill="#AD64F4" d="M1155.5,602.5c0,2.75-2.25,5-5,5h-21c-2.75,0-5-2.25-5-5v-13c0-2.75,2.25-5,5-5h21c2.75,0,5,2.25,5,5V602.5
		z"/>
	<path fill="none" stroke="#000000" stroke-miterlimit="10" d="M1155.5,602.5c0,2.75-2.25,5-5,5h-21c-2.75,0-5-2.25-5-5v-13
		c0-2.75,2.25-5,5-5h21c2.75,0,5,2.25,5,5V602.5z"/>
</g>
<g>
	<path fill="#AD64F4" d="M1155.5,625.5c0,2.75-2.25,5-5,5h-21c-2.75,0-5-2.25-5-5v-13c0-2.75,2.25-5,5-5h21c2.75,0,5,2.25,5,5V625.5
		z"/>
	<path fill="none" stroke="#000000" stroke-miterlimit="10" d="M1155.5,625.5c0,2.75-2.25,5-5,5h-21c-2.75,0-5-2.25-5-5v-13
		c0-2.75,2.25-5,5-5h21c2.75,0,5,2.25,5,5V625.5z"/>
</g>
<g>
	<path fill="#AD64F4" d="M1155.5,646.5c0,2.75-2.25,5-5,5h-21c-2.75,0-5-2.25-5-5v-13c0-2.75,2.25-5,5-5h21c2.75,0,5,2.25,5,5V646.5
		z"/>
	<path fill="none" stroke="#000000" stroke-miterlimit="10" d="M1155.5,646.5c0,2.75-2.25,5-5,5h-21c-2.75,0-5-2.25-5-5v-13
		c0-2.75,2.25-5,5-5h21c2.75,0,5,2.25,5,5V646.5z"/>
</g>
<g>
	<path fill="#AD64F4" d="M1551.5,410.5c0,2.75-2.25,5-5,5h-21c-2.75,0-5-2.25-5-5v-13c0-2.75,2.25-5,5-5h21c2.75,0,5,2.25,5,5V410.5
		z"/>
	<path fill="none" stroke="#000000" stroke-miterlimit="10" d="M1551.5,410.5c0,2.75-2.25,5-5,5h-21c-2.75,0-5-2.25-5-5v-13
		c0-2.75,2.25-5,5-5h21c2.75,0,5,2.25,5,5V410.5z"/>
</g>
<g>
	<path fill="#AD64F4" d="M1551.5,430.5c0,2.75-2.25,5-5,5h-21c-2.75,0-5-2.25-5-5v-13c0-2.75,2.25-5,5-5h21c2.75,0,5,2.25,5,5V430.5
		z"/>
	<path fill="none" stroke="#000000" stroke-miterlimit="10" d="M1551.5,430.5c0,2.75-2.25,5-5,5h-21c-2.75,0-5-2.25-5-5v-13
		c0-2.75,2.25-5,5-5h21c2.75,0,5,2.25,5,5V430.5z"/>
</g>
<g>
	<path fill="#AD64F4" d="M1551.5,451.5c0,2.75-2.25,5-5,5h-21c-2.75,0-5-2.25-5-5v-13c0-2.75,2.25-5,5-5h21c2.75,0,5,2.25,5,5V451.5
		z"/>
	<path fill="none" stroke="#000000" stroke-miterlimit="10" d="M1551.5,451.5c0,2.75-2.25,5-5,5h-21c-2.75,0-5-2.25-5-5v-13
		c0-2.75,2.25-5,5-5h21c2.75,0,5,2.25,5,5V451.5z"/>
</g>
<g>
	<path fill="#AD64F4" d="M1551.5,472.5c0,2.75-2.25,5-5,5h-21c-2.75,0-5-2.25-5-5v-13c0-2.75,2.25-5,5-5h21c2.75,0,5,2.25,5,5V472.5
		z"/>
	<path fill="none" stroke="#000000" stroke-miterlimit="10" d="M1551.5,472.5c0,2.75-2.25,5-5,5h-21c-2.75,0-5-2.25-5-5v-13
		c0-2.75,2.25-5,5-5h21c2.75,0,5,2.25,5,5V472.5z"/>
</g>
<g>
	<path fill="#AD64F4" d="M1551.5,495.5c0,2.75-2.25,5-5,5h-21c-2.75,0-5-2.25-5-5v-13c0-2.75,2.25-5,5-5h21c2.75,0,5,2.25,5,5V495.5
		z"/>
	<path fill="none" stroke="#000000" stroke-miterlimit="10" d="M1551.5,495.5c0,2.75-2.25,5-5,5h-21c-2.75,0-5-2.25-5-5v-13
		c0-2.75,2.25-5,5-5h21c2.75,0,5,2.25,5,5V495.5z"/>
</g>
<g>
	<path fill="#AD64F4" d="M1551.5,516.5c0,2.75-2.25,5-5,5h-21c-2.75,0-5-2.25-5-5v-13c0-2.75,2.25-5,5-5h21c2.75,0,5,2.25,5,5V516.5
		z"/>
	<path fill="none" stroke="#000000" stroke-miterlimit="10" d="M1551.5,516.5c0,2.75-2.25,5-5,5h-21c-2.75,0-5-2.25-5-5v-13
		c0-2.75,2.25-5,5-5h21c2.75,0,5,2.25,5,5V516.5z"/>
</g>
<g>
	<path fill="#AD64F4" d="M1551.5,536.5c0,2.75-2.25,5-5,5h-21c-2.75,0-5-2.25-5-5v-13c0-2.75,2.25-5,5-5h21c2.75,0,5,2.25,5,5V536.5
		z"/>
	<path fill="none" stroke="#000000" stroke-miterlimit="10" d="M1551.5,536.5c0,2.75-2.25,5-5,5h-21c-2.75,0-5-2.25-5-5v-13
		c0-2.75,2.25-5,5-5h21c2.75,0,5,2.25,5,5V536.5z"/>
</g>
<g>
	<path fill="#AD64F4" d="M1551.5,559.5c0,2.75-2.25,5-5,5h-21c-2.75,0-5-2.25-5-5v-13c0-2.75,2.25-5,5-5h21c2.75,0,5,2.25,5,5V559.5
		z"/>
	<path fill="none" stroke="#000000" stroke-miterlimit="10" d="M1551.5,559.5c0,2.75-2.25,5-5,5h-21c-2.75,0-5-2.25-5-5v-13
		c0-2.75,2.25-5,5-5h21c2.75,0,5,2.25,5,5V559.5z"/>
</g>
<g>
	<path fill="#AD64F4" d="M1551.5,580.5c0,2.75-2.25,5-5,5h-21c-2.75,0-5-2.25-5-5v-13c0-2.75,2.25-5,5-5h21c2.75,0,5,2.25,5,5V580.5
		z"/>
	<path fill="none" stroke="#000000" stroke-miterlimit="10" d="M1551.5,580.5c0,2.75-2.25,5-5,5h-21c-2.75,0-5-2.25-5-5v-13
		c0-2.75,2.25-5,5-5h21c2.75,0,5,2.25,5,5V580.5z"/>
</g>
<g>
	<path fill="#AD64F4" d="M1551.5,601.5c0,2.75-2.25,5-5,5h-21c-2.75,0-5-2.25-5-5v-13c0-2.75,2.25-5,5-5h21c2.75,0,5,2.25,5,5V601.5
		z"/>
	<path fill="none" stroke="#000000" stroke-miterlimit="10" d="M1551.5,601.5c0,2.75-2.25,5-5,5h-21c-2.75,0-5-2.25-5-5v-13
		c0-2.75,2.25-5,5-5h21c2.75,0,5,2.25,5,5V601.5z"/>
</g>
<g>
	<path fill="#AD64F4" d="M1551.5,624.5c0,2.75-2.25,5-5,5h-21c-2.75,0-5-2.25-5-5v-13c0-2.75,2.25-5,5-5h21c2.75,0,5,2.25,5,5V624.5
		z"/>
	<path fill="none" stroke="#000000" stroke-miterlimit="10" d="M1551.5,624.5c0,2.75-2.25,5-5,5h-21c-2.75,0-5-2.25-5-5v-13
		c0-2.75,2.25-5,5-5h21c2.75,0,5,2.25,5,5V624.5z"/>
</g>
<g>
	<path fill="#AD64F4" d="M1551.5,645.5c0,2.75-2.25,5-5,5h-21c-2.75,0-5-2.25-5-5v-13c0-2.75,2.25-5,5-5h21c2.75,0,5,2.25,5,5V645.5
		z"/>
	<path fill="none" stroke="#000000" stroke-miterlimit="10" d="M1551.5,645.5c0,2.75-2.25,5-5,5h-21c-2.75,0-5-2.25-5-5v-13
		c0-2.75,2.25-5,5-5h21c2.75,0,5,2.25,5,5V645.5z"/>
</g>
<g>
	<path fill="#96F98C" d="M1033.5,405.5c0,2.75-2.25,5-5,5h-21c-2.75,0-5-2.25-5-5v-13c0-2.75,2.25-5,5-5h21c2.75,0,5,2.25,5,5V405.5
		z"/>
	<path fill="none" stroke="#000000" stroke-miterlimit="10" d="M1033.5,405.5c0,2.75-2.25,5-5,5h-21c-2.75,0-5-2.25-5-5v-13
		c0-2.75,2.25-5,5-5h21c2.75,0,5,2.25,5,5V405.5z"/>
</g>
<g>
	<path fill="#96F98C" d="M1033.5,425.5c0,2.75-2.25,5-5,5h-21c-2.75,0-5-2.25-5-5v-13c0-2.75,2.25-5,5-5h21c2.75,0,5,2.25,5,5V425.5
		z"/>
	<path fill="none" stroke="#000000" stroke-miterlimit="10" d="M1033.5,425.5c0,2.75-2.25,5-5,5h-21c-2.75,0-5-2.25-5-5v-13
		c0-2.75,2.25-5,5-5h21c2.75,0,5,2.25,5,5V425.5z"/>
</g>
<g>
	<path fill="#96F98C" d="M1033.5,446.5c0,2.75-2.25,5-5,5h-21c-2.75,0-5-2.25-5-5v-13c0-2.75,2.25-5,5-5h21c2.75,0,5,2.25,5,5V446.5
		z"/>
	<path fill="none" stroke="#000000" stroke-miterlimit="10" d="M1033.5,446.5c0,2.75-2.25,5-5,5h-21c-2.75,0-5-2.25-5-5v-13
		c0-2.75,2.25-5,5-5h21c2.75,0,5,2.25,5,5V446.5z"/>
</g>
<g>
	<path fill="#96F98C" d="M1033.5,467.5c0,2.75-2.25,5-5,5h-21c-2.75,0-5-2.25-5-5v-13c0-2.75,2.25-5,5-5h21c2.75,0,5,2.25,5,5V467.5
		z"/>
	<path fill="none" stroke="#000000" stroke-miterlimit="10" d="M1033.5,467.5c0,2.75-2.25,5-5,5h-21c-2.75,0-5-2.25-5-5v-13
		c0-2.75,2.25-5,5-5h21c2.75,0,5,2.25,5,5V467.5z"/>
</g>
<g>
	<path fill="#96F98C" d="M1033.5,490.5c0,2.75-2.25,5-5,5h-21c-2.75,0-5-2.25-5-5v-13c0-2.75,2.25-5,5-5h21c2.75,0,5,2.25,5,5V490.5
		z"/>
	<path fill="none" stroke="#000000" stroke-miterlimit="10" d="M1033.5,490.5c0,2.75-2.25,5-5,5h-21c-2.75,0-5-2.25-5-5v-13
		c0-2.75,2.25-5,5-5h21c2.75,0,5,2.25,5,5V490.5z"/>
</g>
<g>
	<path fill="#96F98C" d="M1033.5,511.5c0,2.75-2.25,5-5,5h-21c-2.75,0-5-2.25-5-5v-13c0-2.75,2.25-5,5-5h21c2.75,0,5,2.25,5,5V511.5
		z"/>
	<path fill="none" stroke="#000000" stroke-miterlimit="10" d="M1033.5,511.5c0,2.75-2.25,5-5,5h-21c-2.75,0-5-2.25-5-5v-13
		c0-2.75,2.25-5,5-5h21c2.75,0,5,2.25,5,5V511.5z"/>
</g>
<g>
	<path fill="#96F98C" d="M1033.5,531.5c0,2.75-2.25,5-5,5h-21c-2.75,0-5-2.25-5-5v-13c0-2.75,2.25-5,5-5h21c2.75,0,5,2.25,5,5V531.5
		z"/>
	<path fill="none" stroke="#000000" stroke-miterlimit="10" d="M1033.5,531.5c0,2.75-2.25,5-5,5h-21c-2.75,0-5-2.25-5-5v-13
		c0-2.75,2.25-5,5-5h21c2.75,0,5,2.25,5,5V531.5z"/>
</g>
<g>
	<path fill="#96F98C" d="M1033.5,554.5c0,2.75-2.25,5-5,5h-21c-2.75,0-5-2.25-5-5v-13c0-2.75,2.25-5,5-5h21c2.75,0,5,2.25,5,5V554.5
		z"/>
	<path fill="none" stroke="#000000" stroke-miterlimit="10" d="M1033.5,554.5c0,2.75-2.25,5-5,5h-21c-2.75,0-5-2.25-5-5v-13
		c0-2.75,2.25-5,5-5h21c2.75,0,5,2.25,5,5V554.5z"/>
</g>
<g>
	<path fill="#96F98C" d="M1033.5,575.5c0,2.75-2.25,5-5,5h-21c-2.75,0-5-2.25-5-5v-13c0-2.75,2.25-5,5-5h21c2.75,0,5,2.25,5,5V575.5
		z"/>
	<path fill="none" stroke="#000000" stroke-miterlimit="10" d="M1033.5,575.5c0,2.75-2.25,5-5,5h-21c-2.75,0-5-2.25-5-5v-13
		c0-2.75,2.25-5,5-5h21c2.75,0,5,2.25,5,5V575.5z"/>
</g>
<g>
	<path fill="#96F98C" d="M1033.5,596.5c0,2.75-2.25,5-5,5h-21c-2.75,0-5-2.25-5-5v-13c0-2.75,2.25-5,5-5h21c2.75,0,5,2.25,5,5V596.5
		z"/>
	<path fill="none" stroke="#000000" stroke-miterlimit="10" d="M1033.5,596.5c0,2.75-2.25,5-5,5h-21c-2.75,0-5-2.25-5-5v-13
		c0-2.75,2.25-5,5-5h21c2.75,0,5,2.25,5,5V596.5z"/>
</g>
<g>
	<path fill="#96F98C" d="M1033.5,619.5c0,2.75-2.25,5-5,5h-21c-2.75,0-5-2.25-5-5v-13c0-2.75,2.25-5,5-5h21c2.75,0,5,2.25,5,5V619.5
		z"/>
	<path fill="none" stroke="#000000" stroke-miterlimit="10" d="M1033.5,619.5c0,2.75-2.25,5-5,5h-21c-2.75,0-5-2.25-5-5v-13
		c0-2.75,2.25-5,5-5h21c2.75,0,5,2.25,5,5V619.5z"/>
</g>
<g>
	<path fill="#96F98C" d="M1033.5,640.5c0,2.75-2.25,5-5,5h-21c-2.75,0-5-2.25-5-5v-13c0-2.75,2.25-5,5-5h21c2.75,0,5,2.25,5,5V640.5
		z"/>
	<path fill="none" stroke="#000000" stroke-miterlimit="10" d="M1033.5,640.5c0,2.75-2.25,5-5,5h-21c-2.75,0-5-2.25-5-5v-13
		c0-2.75,2.25-5,5-5h21c2.75,0,5,2.25,5,5V640.5z"/>
</g>
<text transform="matrix(1 0 0 1 828.6382 516.064)" font-family="'AdobeSongStd-Light-GBpc-EUC-H'" font-size="36px">softmax</text>
<line fill="none" stroke="#020202" stroke-miterlimit="10" x1="976" y1="401.5" x2="976" y2="626"/>
<line fill="none" stroke="#020202" stroke-miterlimit="10" x1="990" y1="401.5" x2="976" y2="401.5"/>
<line fill="none" stroke="#020202" stroke-miterlimit="10" x1="990" y1="625.5" x2="976" y2="625.5"/>
<line fill="none" stroke="#020202" stroke-miterlimit="10" x1="1059" y1="401.5" x2="1059" y2="626"/>
<line fill="none" stroke="#020202" stroke-miterlimit="10" x1="1040" y1="401.5" x2="1060" y2="401.5"/>
<line fill="none" stroke="#020202" stroke-miterlimit="10" x1="1040" y1="625.5" x2="1060" y2="625.5"/>
<g>
	<path fill="#36A3B2" d="M1274,540.5c-2.48,0-4.5-2.02-4.5-4.5v-61c0-2.48,2.02-4.5,4.5-4.5h11c2.48,0,4.5,2.02,4.5,4.5v61
		c0,2.48-2.02,4.5-4.5,4.5H1274z"/>
	<path d="M1285,471c2.21,0,4,1.79,4,4v61c0,2.21-1.79,4-4,4h-11c-2.21,0-4-1.79-4-4v-61c0-2.21,1.79-4,4-4H1285 M1285,470h-11
		c-2.75,0-5,2.25-5,5v61c0,2.75,2.25,5,5,5h11c2.75,0,5-2.25,5-5v-61C1290,472.25,1287.75,470,1285,470L1285,470z"/>
</g>
<g>
	<path fill="#36A3B2" d="M345,968.5c-2.48,0-4.5-2.02-4.5-4.5v-61c0-2.48,2.02-4.5,4.5-4.5h11c2.48,0,4.5,2.02,4.5,4.5v61
		c0,2.48-2.02,4.5-4.5,4.5H345z"/>
	<path d="M356,899c2.21,0,4,1.79,4,4v61c0,2.21-1.79,4-4,4h-11c-2.21,0-4-1.79-4-4v-61c0-2.21,1.79-4,4-4H356 M356,898h-11
		c-2.75,0-5,2.25-5,5v61c0,2.75,2.25,5,5,5h11c2.75,0,5-2.25,5-5v-61C361,900.25,358.75,898,356,898L356,898z"/>
</g>
<g>
	<path fill="#36A3B2" d="M401,968.5c-2.48,0-4.5-2.02-4.5-4.5v-61c0-2.48,2.02-4.5,4.5-4.5h11c2.48,0,4.5,2.02,4.5,4.5v61
		c0,2.48-2.02,4.5-4.5,4.5H401z"/>
	<path d="M412,899c2.21,0,4,1.79,4,4v61c0,2.21-1.79,4-4,4h-11c-2.21,0-4-1.79-4-4v-61c0-2.21,1.79-4,4-4H412 M412,898h-11
		c-2.75,0-5,2.25-5,5v61c0,2.75,2.25,5,5,5h11c2.75,0,5-2.25,5-5v-61C417,900.25,414.75,898,412,898L412,898z"/>
</g>
<g>
	<path fill="#36A3B2" d="M459,968.5c-2.48,0-4.5-2.02-4.5-4.5v-61c0-2.48,2.02-4.5,4.5-4.5h11c2.48,0,4.5,2.02,4.5,4.5v61
		c0,2.48-2.02,4.5-4.5,4.5H459z"/>
	<path d="M470,899c2.21,0,4,1.79,4,4v61c0,2.21-1.79,4-4,4h-11c-2.21,0-4-1.79-4-4v-61c0-2.21,1.79-4,4-4H470 M470,898h-11
		c-2.75,0-5,2.25-5,5v61c0,2.75,2.25,5,5,5h11c2.75,0,5-2.25,5-5v-61C475,900.25,472.75,898,470,898L470,898z"/>
</g>
<g>
	<path fill="#36A3B2" d="M515,968.5c-2.48,0-4.5-2.02-4.5-4.5v-61c0-2.48,2.02-4.5,4.5-4.5h11c2.48,0,4.5,2.02,4.5,4.5v61
		c0,2.48-2.02,4.5-4.5,4.5H515z"/>
	<path d="M526,899c2.21,0,4,1.79,4,4v61c0,2.21-1.79,4-4,4h-11c-2.21,0-4-1.79-4-4v-61c0-2.21,1.79-4,4-4H526 M526,898h-11
		c-2.75,0-5,2.25-5,5v61c0,2.75,2.25,5,5,5h11c2.75,0,5-2.25,5-5v-61C531,900.25,528.75,898,526,898L526,898z"/>
</g>
<g>
	<path fill="#36A3B2" d="M569,968.5c-2.48,0-4.5-2.02-4.5-4.5v-61c0-2.48,2.02-4.5,4.5-4.5h11c2.48,0,4.5,2.02,4.5,4.5v61
		c0,2.48-2.02,4.5-4.5,4.5H569z"/>
	<path d="M580,899c2.21,0,4,1.79,4,4v61c0,2.21-1.79,4-4,4h-11c-2.21,0-4-1.79-4-4v-61c0-2.21,1.79-4,4-4H580 M580,898h-11
		c-2.75,0-5,2.25-5,5v61c0,2.75,2.25,5,5,5h11c2.75,0,5-2.25,5-5v-61C585,900.25,582.75,898,580,898L580,898z"/>
</g>
<g>
	<path fill="#36A3B2" d="M625,968.5c-2.48,0-4.5-2.02-4.5-4.5v-61c0-2.48,2.02-4.5,4.5-4.5h11c2.48,0,4.5,2.02,4.5,4.5v61
		c0,2.48-2.02,4.5-4.5,4.5H625z"/>
	<path d="M636,899c2.21,0,4,1.79,4,4v61c0,2.21-1.79,4-4,4h-11c-2.21,0-4-1.79-4-4v-61c0-2.21,1.79-4,4-4H636 M636,898h-11
		c-2.75,0-5,2.25-5,5v61c0,2.75,2.25,5,5,5h11c2.75,0,5-2.25,5-5v-61C641,900.25,638.75,898,636,898L636,898z"/>
</g>
<g>
	<path fill="#36A3B2" d="M683,968.5c-2.48,0-4.5-2.02-4.5-4.5v-61c0-2.48,2.02-4.5,4.5-4.5h11c2.48,0,4.5,2.02,4.5,4.5v61
		c0,2.48-2.02,4.5-4.5,4.5H683z"/>
	<path d="M694,899c2.21,0,4,1.79,4,4v61c0,2.21-1.79,4-4,4h-11c-2.21,0-4-1.79-4-4v-61c0-2.21,1.79-4,4-4H694 M694,898h-11
		c-2.75,0-5,2.25-5,5v61c0,2.75,2.25,5,5,5h11c2.75,0,5-2.25,5-5v-61C699,900.25,696.75,898,694,898L694,898z"/>
</g>
<g>
	<path fill="#36A3B2" d="M739,968.5c-2.48,0-4.5-2.02-4.5-4.5v-61c0-2.48,2.02-4.5,4.5-4.5h11c2.48,0,4.5,2.02,4.5,4.5v61
		c0,2.48-2.02,4.5-4.5,4.5H739z"/>
	<path d="M750,899c2.21,0,4,1.79,4,4v61c0,2.21-1.79,4-4,4h-11c-2.21,0-4-1.79-4-4v-61c0-2.21,1.79-4,4-4H750 M750,898h-11
		c-2.75,0-5,2.25-5,5v61c0,2.75,2.25,5,5,5h11c2.75,0,5-2.25,5-5v-61C755,900.25,752.75,898,750,898L750,898z"/>
</g>
<g>
	<path fill="#36A3B2" d="M1295,540.5c-2.48,0-4.5-2.02-4.5-4.5v-61c0-2.48,2.02-4.5,4.5-4.5h11c2.48,0,4.5,2.02,4.5,4.5v61
		c0,2.48-2.02,4.5-4.5,4.5H1295z"/>
	<path d="M1306,471c2.21,0,4,1.79,4,4v61c0,2.21-1.79,4-4,4h-11c-2.21,0-4-1.79-4-4v-61c0-2.21,1.79-4,4-4H1306 M1306,470h-11
		c-2.75,0-5,2.25-5,5v61c0,2.75,2.25,5,5,5h11c2.75,0,5-2.25,5-5v-61C1311,472.25,1308.75,470,1306,470L1306,470z"/>
</g>
<g>
	<path fill="#36A3B2" d="M1316,540.5c-2.48,0-4.5-2.02-4.5-4.5v-61c0-2.48,2.02-4.5,4.5-4.5h11c2.48,0,4.5,2.02,4.5,4.5v61
		c0,2.48-2.02,4.5-4.5,4.5H1316z"/>
	<path d="M1327,471c2.21,0,4,1.79,4,4v61c0,2.21-1.79,4-4,4h-11c-2.21,0-4-1.79-4-4v-61c0-2.21,1.79-4,4-4H1327 M1327,470h-11
		c-2.75,0-5,2.25-5,5v61c0,2.75,2.25,5,5,5h11c2.75,0,5-2.25,5-5v-61C1332,472.25,1329.75,470,1327,470L1327,470z"/>
</g>
<g>
	<path fill="#36A3B2" d="M1337,540.5c-2.48,0-4.5-2.02-4.5-4.5v-61c0-2.48,2.02-4.5,4.5-4.5h11c2.48,0,4.5,2.02,4.5,4.5v61
		c0,2.48-2.02,4.5-4.5,4.5H1337z"/>
	<path d="M1348,471c2.21,0,4,1.79,4,4v61c0,2.21-1.79,4-4,4h-11c-2.21,0-4-1.79-4-4v-61c0-2.21,1.79-4,4-4H1348 M1348,470h-11
		c-2.75,0-5,2.25-5,5v61c0,2.75,2.25,5,5,5h11c2.75,0,5-2.25,5-5v-61C1353,472.25,1350.75,470,1348,470L1348,470z"/>
</g>
<g>
	<path fill="#36A3B2" d="M1358,540.5c-2.48,0-4.5-2.02-4.5-4.5v-61c0-2.48,2.02-4.5,4.5-4.5h11c2.48,0,4.5,2.02,4.5,4.5v61
		c0,2.48-2.02,4.5-4.5,4.5H1358z"/>
	<path d="M1369,471c2.21,0,4,1.79,4,4v61c0,2.21-1.79,4-4,4h-11c-2.21,0-4-1.79-4-4v-61c0-2.21,1.79-4,4-4H1369 M1369,470h-11
		c-2.75,0-5,2.25-5,5v61c0,2.75,2.25,5,5,5h11c2.75,0,5-2.25,5-5v-61C1374,472.25,1371.75,470,1369,470L1369,470z"/>
</g>
<g>
	<path fill="#36A3B2" d="M1379,540.5c-2.48,0-4.5-2.02-4.5-4.5v-61c0-2.48,2.02-4.5,4.5-4.5h11c2.48,0,4.5,2.02,4.5,4.5v61
		c0,2.48-2.02,4.5-4.5,4.5H1379z"/>
	<path d="M1390,471c2.21,0,4,1.79,4,4v61c0,2.21-1.79,4-4,4h-11c-2.21,0-4-1.79-4-4v-61c0-2.21,1.79-4,4-4H1390 M1390,470h-11
		c-2.75,0-5,2.25-5,5v61c0,2.75,2.25,5,5,5h11c2.75,0,5-2.25,5-5v-61C1395,472.25,1392.75,470,1390,470L1390,470z"/>
</g>
<g>
	<path fill="#36A3B2" d="M1400,540.5c-2.48,0-4.5-2.02-4.5-4.5v-61c0-2.48,2.02-4.5,4.5-4.5h11c2.48,0,4.5,2.02,4.5,4.5v61
		c0,2.48-2.02,4.5-4.5,4.5H1400z"/>
	<path d="M1411,471c2.21,0,4,1.79,4,4v61c0,2.21-1.79,4-4,4h-11c-2.21,0-4-1.79-4-4v-61c0-2.21,1.79-4,4-4H1411 M1411,470h-11
		c-2.75,0-5,2.25-5,5v61c0,2.75,2.25,5,5,5h11c2.75,0,5-2.25,5-5v-61C1416,472.25,1413.75,470,1411,470L1411,470z"/>
</g>
<g>
	<path fill="#36A3B2" d="M1421,540.5c-2.48,0-4.5-2.02-4.5-4.5v-61c0-2.48,2.02-4.5,4.5-4.5h11c2.48,0,4.5,2.02,4.5,4.5v61
		c0,2.48-2.02,4.5-4.5,4.5H1421z"/>
	<path d="M1432,471c2.21,0,4,1.79,4,4v61c0,2.21-1.79,4-4,4h-11c-2.21,0-4-1.79-4-4v-61c0-2.21,1.79-4,4-4H1432 M1432,470h-11
		c-2.75,0-5,2.25-5,5v61c0,2.75,2.25,5,5,5h11c2.75,0,5-2.25,5-5v-61C1437,472.25,1434.75,470,1432,470L1432,470z"/>
</g>
<text transform="matrix(1 0 0 1 1795.583 513.9648)" fill="#C95B88" font-family="'Georgia'" font-size="36px">context</text>
<g>
	<line fill="#050505" x1="1699" y1="505.5" x2="1789" y2="505.5"/>
	<g>
		<line fill="none" stroke="#000000" stroke-miterlimit="10" x1="1699" y1="505.5" x2="1780.85" y2="505.5"/>
		<g>
			<path d="M1779.05,505.5l-2.19-3.6l0.12-0.08l5.88,2.33c2.05,0.45,4.09,0.9,6.14,1.35c-2.05,0.45-4.09,0.9-6.14,1.35l-5.88,2.33
				l-0.12-0.06L1779.05,505.5z"/>
		</g>
	</g>
</g>
<g>
	<path fill="#A8A8A8" d="M389,780.5c-10.75,0-19.5-8.75-19.5-19.5v-30c0-10.75,8.75-19.5,19.5-19.5h551c10.75,0,19.5,8.75,19.5,19.5
		v30c0,10.75-8.75,19.5-19.5,19.5H389z"/>
	<path d="M940,712c10.48,0,19,8.52,19,19v30c0,10.48-8.52,19-19,19H389c-10.48,0-19-8.52-19-19v-30c0-10.48,8.52-19,19-19H940
		 M940,711H389c-11,0-20,9-20,20v30c0,11,9,20,20,20h551c11,0,20-9,20-20v-30C960,720,951,711,940,711L940,711z"/>
</g>
<text transform="matrix(1 0 0 1 596.6816 753.2676)" font-family="'Georgia'" font-size="36px">Attention</text>
<line fill="none" stroke="#020202" stroke-miterlimit="10" x1="1550.5" y1="510.5" x2="1658.5" y2="770.5"/>
<line fill="none" stroke="#020202" stroke-miterlimit="10" x1="1530.5" y1="650.5" x2="1544.5" y2="771.5"/>
<path fill="none" stroke="#020202" stroke-miterlimit="10" d="M1743.5,850.5c0,5.5-4.5,10-10,10h-216c-5.5,0-10-4.5-10-10v-69
	c0-5.5,4.5-10,10-10h216c5.5,0,10,4.5,10,10V850.5z"/>
<rect x="1520.5" y="825.5" fill="#AD64F4" stroke="#000000" stroke-miterlimit="10" width="28" height="22"/>
<rect x="1659.5" y="833.5" fill="#AD64F4" stroke="#000000" stroke-miterlimit="10" width="28" height="14"/>
<rect x="1631.5" y="819.5" fill="#AD64F4" stroke="#000000" stroke-miterlimit="10" width="28" height="28"/>
<rect x="1548.5" y="839.5" fill="#AD64F4" stroke="#000000" stroke-miterlimit="10" width="28" height="8"/>
<rect x="1576.5" y="830.5" fill="#AD64F4" stroke="#000000" stroke-miterlimit="10" width="28" height="17"/>
<rect x="1603.5" y="802.5" fill="#AD64F4" stroke="#000000" stroke-miterlimit="10" width="28" height="45"/>
<path d="M774.05,887.05v1c4.94,0,8.95,4.02,8.95,8.95v73c0,4.96-4.04,9-9,9H323c-4.96,0-9-4.04-9-9v-73c0-4.92,4-8.93,8.93-8.93
	l0.07,0c0.4,0,40.63,0.29,65.5,0.43c28.23,0.15,64.37,0.23,107.4,0.23c127.52,0,276.62-0.68,278.11-0.68L774.05,887.05
	 M774.05,887.05c-0.02,0-0.03,0-0.05,0c0,0-149.12,0.68-278.11,0.68c-39.25,0-76.64-0.06-107.39-0.23
	c-25.16-0.13-65.5-0.43-65.5-0.43c-0.02,0-0.05,0-0.07,0c-5.47,0-9.93,4.45-9.93,9.93v73c0,5.5,4.5,10,10,10h451c5.5,0,10-4.5,10-10
	v-73C784,891.52,779.53,887.05,774.05,887.05L774.05,887.05z"/>
<g>
	<path fill="none" stroke="#000000" stroke-miterlimit="10" d="M465.66,887c-4.53-6.07,14.82-12.54,41.97-18.89
		c161.65-37.84,191.12-69.82,196.1-82.62"/>
	<g>
		<path d="M704.49,779.5c0.61,2.97,1.86,6.72,3.41,9.17l-4.44-2.42l-4.96,0.98C700.71,785.36,703.02,782.15,704.49,779.5z"/>
	</g>
</g>
<path fill="none" stroke="#000000" stroke-miterlimit="10" d="M747.19,799.35"/>
<path fill="none" stroke="#000000" stroke-miterlimit="10" d="M480.5,831.5"/>
<g>
	<path fill="none" stroke="#000000" stroke-miterlimit="10" d="M914,861c-55.21-58.76-129.53-68.83-203.6-79.53"/>
	<g>
		<path d="M704.43,780.61c2.96-0.63,6.71-1.9,9.14-3.47l-2.39,4.46l1.02,4.95C710.32,784.35,707.09,782.06,704.43,780.61z"/>
	</g>
</g>
<text transform="matrix(1 0 0 1 302.2764 1031.1279)" font-family="'Georgia'" font-size="36px">Encoder GRU </text>
<text transform="matrix(1 0 0 1 531.6006 1031.1279)" fill="#00D4A7" font-family="'Georgia-Bold'" font-size="36px">hidden states</text>
<text transform="matrix(1 0 0 1 778.6611 1031.1279)" font-family="'Georgia'" font-size="36px"> from 1 to N </text>
<text transform="matrix(1 0 0 1 1294.2764 922.1279)" font-family="'Georgia'" font-size="36px">Decoder GRU </text>
<text transform="matrix(1 0 0 1 1523.1787 922.1279)" fill="#AD64F4" font-family="'Georgia-Bold'" font-size="36px">hidden state</text>
<text transform="matrix(1 0 0 1 1751.7822 922.1279)" fill="#00D4A7" font-family="'Georgia'" font-size="36px"> </text>
<text transform="matrix(1 0 0 1 1760.4658 922.1279)" font-family="'Georgia'" font-size="36px">attention</text>
</svg>
